<svg width="1792" height="1792" viewBox="0 0 1792 1792" xmlns="http://www.w3.org/2000/svg"><path fill="#555" d="m 450.99432,163.37756 c -8,0 -16,3.33333 -24,10 l -319,319 c -6,6 -9.000001,13.66668 -9.000001,23 0,9.33332 3.000001,17 9.000001,23 l 320,320 c 6,6 13.66668,9 23,9 8.66668,0 16.16668,-3.16668 22.5,-9.5 6.33332,-6.33332 9.5,-13.83332 9.5,-22.5 l 0,-192 719.40788,-1.34228 c 110.7953,-0.2068 180.9363,96.26112 179.7749,170.56156 -1.4006,89.60288 0.8452,140.18857 -1.3078,196.81766 -3.4729,91.3434 -94.4827,171.9631 -178.4133,171.9631 l -863.46168,0 c -8.66668,0 -16.16668,3.1666 -22.5,9.5 -6.33332,6.3333 -9.5,13.8333 -9.5,22.5 l 0,192 c 0,8.6666 3.16668,16.1666 9.5,22.5 6.33332,6.3333 13.83336,9.4728 22.5,9.5 0,0 763.76358,3.4264 863.19258,2.6846 262.2296,-1.9565 425.022,-250.4484 428.0189,-383.4823 2.0109,-89.2629 1.9119,-203.02382 1.2885,-279.37938 -1.7678,-216.53256 -215.1308,-387.19217 -405.146,-387.13836 -72.3176,0.0205 -743.35398,-2.6846 -743.35398,-2.6846 l 0,-192 c 0,-9.33333 -3,-17 -9,-23 -6,-6 -13.66668,-9 -23,-9 z"/></svg>
