<svg width="1792" height="1792" viewBox="0 0 1792 1792"
  xmlns="http://www.w3.org/2000/svg"
  xmlns:xlink="http://www.w3.org/1999/xlink"
>
  <defs
     id="defs3032">
    <linearGradient
       id="linearGradient3806">
      <stop
         style="stop-color:#2c70c0;stop-opacity:1;"
         offset="0"
         id="stop3808" />
      <stop
         style="stop-color:#a6ccf9;stop-opacity:0.56637168;"
         offset="1"
         id="stop3810" />
    </linearGradient>
    <linearGradient
       xlink:href="#linearGradient3806"
       id="linearGradient3812"
       x1="259.78278"
       y1="1105.4254"
       x2="858.23254"
       y2="1051.7333"
       gradientUnits="userSpaceOnUse"
       gradientTransform="translate(-1.3423026,9.3961314)" />
    <linearGradient
       xlink:href="#linearGradient3806-7"
       id="linearGradient3812-1"
       x1="259.78278"
       y1="1105.4254"
       x2="858.23254"
       y2="1051.7333"
       gradientUnits="userSpaceOnUse"
       gradientTransform="translate(295.30697,22.819175)" />
    <linearGradient
       id="linearGradient3806-7">
      <stop
         style="stop-color:#cd6f62;stop-opacity:1;"
         offset="0"
         id="stop3808-4" />
      <stop
         style="stop-color:#f70e0e;stop-opacity:0.28318584;"
         offset="1"
         id="stop3810-0" />
    </linearGradient>
    <linearGradient
       y2="1051.7333"
       x2="858.23254"
       y1="1105.4254"
       x1="259.78278"
       gradientTransform="matrix(-1,0,0,1,1779.1623,11.395609)"
       gradientUnits="userSpaceOnUse"
       id="linearGradient3829"
       xlink:href="#linearGradient3806-7" />
  </defs>
<path fill="#555" d="m 615.09492,468.66102 -96.6,-26.6 q -35,-8.4 -63,16.8 l -417.200005,413 q -15.4,15.4 -21,37.1 -5.6,21.7 2.8,42.7 7,19.6 25.2,32.9 18.2,13.3 39.2,13.3 l 11.2,0 q -1.4,0 -1.4,18.19998 0,40.6 2.8,78.4 2.8,37.8 11.900005,86.8 9.1,49 28,88.2 18.9,39.2 46.2,74.2 27.3,35 71.4,54.6 44.1,19.6 101.5,19.6 l 204.4,0 q 257.6,0 257.6,-403.2 0,-33.59998 -14,-65.79998 28,-5.6 86.8,-5.6 58.8,0 88.2,5.6 -15.4,33.6 -15.4,65.79998 0,403.2 257.59998,403.2 l 198.8,0 q 67.2,0 118.3,-29.4 51.1,-29.4 78.4,-71.4 27.3,-42 44.8,-100.1 17.5,-58.1 22.4,-105 4.9,-46.9 4.9,-95.9 0,-18.19998 -2.8,-18.19998 l 9.8,0 q 21,0 38.5,-13.3 17.5,-13.3 25.9,-32.9 8.4,-21 2.8,-42.7 -5.6,-21.7 -21,-35.7 l -417.2,-414.4 q -28,-25.2 -64.4,-15.4 l -106.4,26.6 q -28,7 -42.7,31.5 -14.7,24.5 -7.7,52.5 7,28 31.5,43.4 24.5,15.4 52.5,7 l 71.4,-16.8 254.8,270.2 -1247.39998,0 254.8,-270.2 61.6,16.8 q 28,7 52.5,-8.4 24.5,-15.4 31.5,-43.4 7,-28 -8.4,-52.5 -15.4,-24.5 -43.4,-31.5 z" />

<path style="fill:url(#linearGradient3812);fill-opacity:1;stroke:none"
     d="m 212.06332,1002.8149 c -33.3494,57.0722 3.65828,215.0676 18.29133,244.732 14.63306,29.6646 59.75168,74.1613 98.77318,77.8694 52.30493,4.9704 190.86525,10.5516 239.00672,1.236 25.21835,-4.8799 55.91278,-12.9042 82.9207,-50.6768 27.0079,-37.7727 53.65458,-105.0618 53.65458,-176.751 0,-71.6891 -9.75543,-108.76978 -29.26614,-121.12999 -40.73753,-25.80755 -328.5118,-24.74134 -382.89852,-13.59621 -29.0514,5.95331 -65.37739,12.46781 -80.48185,38.3166 z"/>
<path style="fill:url(#linearGradient3829);fill-opacity:1;stroke:none"
     d="m 1576.1364,1002.1298 c 34.2337,57.0721 -3.7553,215.0676 -18.7764,244.732 -15.0211,29.6646 -61.3362,74.1613 -101.3925,77.8694 -53.692,4.9704 -195.9267,10.5516 -245.3449,1.236 -25.8871,-4.8799 -57.3955,-12.9042 -85.1196,-50.6768 -27.7241,-37.7727 -55.0774,-105.0618 -55.0774,-176.751 0,-71.6892 10.0141,-108.76982 30.0422,-121.13003 41.8178,-25.80755 337.2234,-24.74134 393.0525,-13.59621 29.8217,5.95331 67.1111,12.46781 82.6161,38.31664 z"/>
</svg>
